<svg width="95" height="95" viewBox="0 0 95 95" fill="none" xmlns="http://www.w3.org/2000/svg">
<path d="M42.8232 13.8789C45.8104 12.5987 49.1916 12.5987 52.1787 13.8789L72.8105 22.7207C74.2658 23.3445 75.209 24.776 75.209 26.3594V47.1514C75.209 54.8214 71.505 62.0194 65.2637 66.4775L52.1025 75.8789C49.3499 77.845 45.652 77.8451 42.8994 75.8789L29.7383 66.4775C23.497 62.0194 19.793 54.8214 19.793 47.1514V26.3594C19.793 24.776 20.7361 23.3445 22.1914 22.7207L42.8232 13.8789ZM60.001 34.8438C59.5967 34.5203 59.0181 34.562 58.6631 34.9238L58.5947 35L43.46 53.9189L36.333 46.793C35.9425 46.4025 35.3095 46.4024 34.9189 46.793C34.5285 47.1835 34.5285 47.8165 34.9189 48.207L42.4404 55.7285C43.0726 56.3606 44.1144 56.3035 44.6729 55.6055L60.1572 36.25L60.2168 36.167C60.492 35.7412 60.4053 35.1673 60.001 34.8438Z" fill="#222222"/>
</svg>
