<svg width="101" height="101" viewBox="0 0 101 101" fill="none" xmlns="http://www.w3.org/2000/svg">
<path d="M50.499 16.833C69.0926 16.833 84.166 31.9064 84.166 50.5C84.166 69.0936 69.0926 84.167 50.499 84.167C31.9054 84.167 16.832 69.0936 16.832 50.5C16.832 31.9064 31.9054 16.833 50.499 16.833ZM50.2979 26.2549C50.097 26.215 49.9101 26.6625 49.5371 27.5576L39.0283 52.7812C38.5066 54.0334 38.2453 54.6592 38.542 55.1045C38.8389 55.5498 39.5172 55.5498 40.874 55.5498H49.999C50.2346 55.5498 50.3526 55.5499 50.4258 55.623C50.499 55.6963 50.499 55.8142 50.499 56.0498V73.25C50.499 74.22 50.4992 74.7049 50.7002 74.7451C50.9011 74.785 51.088 74.3375 51.4609 73.4424L61.9697 48.2188C62.4914 46.9666 62.7528 46.3408 62.4561 45.8955C62.1592 45.4502 61.4808 45.4502 60.124 45.4502H50.999C50.7634 45.4502 50.6455 45.4501 50.5723 45.377C50.4991 45.3038 50.499 45.1858 50.499 44.9502V27.75C50.499 26.78 50.4988 26.2951 50.2979 26.2549Z" fill="#222222"/>
</svg>
